<svg width="54" height="10" viewBox="0 0 54 10" fill="none" xmlns="http://www.w3.org/2000/svg">
<path d="M0.144 9L1.512 0.599999H3.3L4.668 9H3.348L3.108 7.332V7.356H1.608L1.368 9H0.144ZM1.764 6.216H2.952L2.364 2.064H2.34L1.764 6.216ZM5.30841 9V0.599999H6.62841V7.8H8.80041V9H5.30841ZM9.43341 9V0.599999H13.0334V1.8H10.7534V4.02H12.5654V5.22H10.7534V7.8H13.0334V9H9.43341ZM14.8248 9V1.8H13.4448V0.599999H17.5248V1.8H16.1448V9H14.8248ZM19.3131 9V1.8H17.9331V0.599999H22.0131V1.8H20.6331V9H19.3131ZM22.6522 9V0.599999H26.2522V1.8H23.9722V4.02H25.7842V5.22H23.9722V7.8H26.2522V9H22.6522ZM30.6494 9.12C29.3534 9.12 28.7054 8.352 28.7054 7.008V6.528H29.9534V7.104C29.9534 7.704 30.2174 7.92 30.6374 7.92C31.0574 7.92 31.3214 7.704 31.3214 7.08C31.3214 6.384 31.0574 5.94 30.1934 5.184C29.0894 4.212 28.7294 3.528 28.7294 2.568C28.7294 1.248 29.4134 0.48 30.6974 0.48C31.9814 0.48 32.6174 1.248 32.6174 2.592V2.94H31.3694V2.508C31.3694 1.908 31.1294 1.68 30.7094 1.68C30.2894 1.68 30.0494 1.908 30.0494 2.484C30.0494 3.096 30.3254 3.54 31.1894 4.296C32.2934 5.268 32.6414 5.94 32.6414 6.984C32.6414 8.352 31.9454 9.12 30.6494 9.12ZM33.3983 9V0.599999H34.7183V9H33.3983ZM37.5788 9.12C36.2828 9.12 35.6108 8.352 35.6108 7.008V2.592C35.6108 1.248 36.2828 0.48 37.5788 0.48C38.8748 0.48 39.5468 1.248 39.5468 2.592V3.312H38.2988V2.508C38.2988 1.908 38.0348 1.68 37.6148 1.68C37.1948 1.68 36.9308 1.908 36.9308 2.508V7.104C36.9308 7.704 37.1948 7.92 37.6148 7.92C38.0348 7.92 38.2988 7.704 38.2988 7.104V5.46H37.6388V4.26H39.5468V7.008C39.5468 8.352 38.8748 9.12 37.5788 9.12ZM40.3943 9V0.599999H42.0503L43.3343 5.628H43.3583V0.599999H44.5343V9H43.1783L41.5943 2.868H41.5703V9H40.3943ZM45.1674 9L46.5354 0.599999H48.3234L49.6914 9H48.3714L48.1314 7.332V7.356H46.6314L46.3914 9H45.1674ZM46.7874 6.216H47.9754L47.3874 2.064H47.3634L46.7874 6.216ZM50.3318 9V0.599999H51.6518V7.8H53.8238V9H50.3318Z" fill="#3C3C43"/>
</svg>
